<svg width="20" height="20" viewBox="0 0 20 20" fill="none" xmlns="http://www.w3.org/2000/svg">
<path d="M18.21 5.82L10.51 10.28C10.2 10.46 9.81 10.46 9.49 10.28L1.79 5.82C1.24 5.5 1.1 4.75 1.52 4.28C1.81 3.95 2.14 3.68 2.49 3.49L7.91 0.490002C9.07 -0.159998 10.95 -0.159998 12.11 0.490002L17.53 3.49C17.88 3.68 18.21 3.96 18.5 4.28C18.9 4.75 18.76 5.5 18.21 5.82Z" fill="#171717"/>
<path d="M9.43 12.14V18.96C9.43 19.72 8.66 20.22 7.98 19.89C5.92 18.88 2.45 16.99 2.45 16.99C1.23 16.3 0.23 14.56 0.23 13.13V7.97C0.23 7.18 1.06 6.68 1.74 7.07L8.93 11.24C9.23 11.43 9.43 11.77 9.43 12.14Z" fill="#171717"/>
<path d="M11.07 18.96V12.14C11.07 11.9522 11.1723 11.7704 11.3306 11.6669L18.5088 7.50373C18.5091 7.50356 18.5094 7.50339 18.5096 7.50322C18.84 7.31463 19.27 7.54578 19.27 7.97V13.13C19.27 13.7372 19.0543 14.4443 18.684 15.0883C18.3142 15.7315 17.8184 16.2627 17.3072 16.5529L17.301 16.5563L17.2717 16.5722L17.1585 16.6337C17.0598 16.6872 16.9165 16.7648 16.7381 16.8611C16.3813 17.0537 15.884 17.3211 15.3226 17.6199C14.1985 18.2182 12.8228 18.9395 11.801 19.4405C11.4675 19.6017 11.07 19.3667 11.07 18.96Z" stroke="black"/>
</svg>
