<svg width="23" height="26" viewBox="0 0 23 26" fill="none" xmlns="http://www.w3.org/2000/svg">
<path d="M13.9216 9.48438C13.7861 9.22917 13.8773 9.03125 14.195 8.89062C14.4971 8.75521 14.8122 8.5651 15.1403 8.32031C15.4684 8.07552 15.7367 7.82292 15.945 7.5625C16.1794 7.27083 16.4033 7.125 16.6169 7.125H17.8591C18.1716 7.125 18.3278 7.28125 18.3278 7.59375V17.9062C18.3278 18.2188 18.1716 18.375 17.8591 18.375H16.6091C16.2966 18.375 16.1403 18.2188 16.1403 17.9062V10.4766C16.1403 10.2682 16.1507 10.0599 16.1716 9.85156H16.1403C15.9789 10.0547 15.8018 10.2292 15.6091 10.375C15.4164 10.5208 15.221 10.6354 15.0231 10.7188C14.7783 10.8229 14.5934 10.7552 14.4684 10.5156L13.9216 9.48438Z" fill="#58DC5E"/>
<path d="M4 12.8203C4 10.7109 4.32812 9.21354 4.98438 8.32812C5.64062 7.44271 6.64583 7 8 7C9.35417 7 10.3594 7.44271 11.0156 8.32812C11.6719 9.21354 12 10.7109 12 12.8203C12 14.9297 11.6719 16.4271 11.0156 17.3125C10.3594 18.1979 9.35417 18.6406 8 18.6406C6.64583 18.6406 5.64062 18.1979 4.98438 17.3125C4.32812 16.4271 4 14.9297 4 12.8203ZM6.3125 12.8203C6.3125 13.7839 6.39062 14.7109 6.54688 15.6016C6.70833 16.4922 7.19271 16.9375 8 16.9375C8.80729 16.9375 9.28906 16.4922 9.44531 15.6016C9.60677 14.7109 9.6875 13.7839 9.6875 12.8203C9.6875 11.8568 9.60677 10.9297 9.44531 10.0391C9.28906 9.14844 8.80729 8.70312 8 8.70312C7.19271 8.70312 6.70833 9.14844 6.54688 10.0391C6.39062 10.9297 6.3125 11.8568 6.3125 12.8203Z" fill="#58DC5E"/>
</svg>
