<svg width="24" height="26" viewBox="0 0 24 26" fill="none" xmlns="http://www.w3.org/2000/svg">
<path d="M5 17.2632C5 16.635 5.24953 16.0326 5.69369 15.5884C6.13786 15.1443 6.74028 14.8947 7.36842 14.8947C7.99657 14.8947 8.59898 15.1443 9.04315 15.5884C9.48731 16.0326 9.73684 16.635 9.73684 17.2632C9.73684 17.963 9.14474 18.4474 8.55263 19.0395L5 22H9.73684" stroke="#58C4DC" stroke-width="1.4" stroke-linecap="round" stroke-linejoin="round"/>
<path d="M7.21053 12V4C7.21053 5.10456 6.53895 5.99998 5.71053 5.99998H5.21053" stroke="#58C4DC" stroke-width="1.4" stroke-linecap="round" stroke-linejoin="round"/>
<path d="M9.21053 12H5.21053" stroke="#58C4DC" stroke-width="1.4" stroke-linecap="round" stroke-linejoin="round"/>
<path d="M17.2584 7.47141C18.304 7.47141 19.1518 8.31911 19.1518 9.3648V9.68038C19.1518 10.7261 18.304 11.5738 17.2584 11.5738L15.9961 11.5738C15.1717 11.5738 14.4704 11.0469 14.2105 10.3115" stroke="#58C4DC" stroke-width="1.4" stroke-linecap="round" stroke-linejoin="round"/>
<path d="M14.4837 5.26226C14.6898 4.53379 15.3594 4.00002 16.1539 4H17.1006C18.0593 3.99998 18.8364 4.77705 18.8364 5.73562C18.8364 6.69417 18.0593 7.47123 17.1006 7.47123L16.9429 7.47122" stroke="#58C4DC" stroke-width="1.4" stroke-linecap="round" stroke-linejoin="round"/>
<path d="M18.1307 14H18.1549C18.4523 14 18.6011 14.1703 18.6011 14.511V19.4091H19.2282C19.5497 19.4091 19.7105 19.567 19.7105 19.8827C19.7105 20.1901 19.5497 20.3438 19.2282 20.3438H18.6011V22.0389C18.6011 22.205 18.5609 22.3255 18.4805 22.4003C18.4081 22.4668 18.2795 22.5 18.0946 22.5H18.0222C17.8453 22.5 17.7207 22.4668 17.6484 22.4003C17.5841 22.3255 17.5519 22.205 17.5519 22.0389V20.3438H13.6447C13.3552 20.3438 13.2105 20.2192 13.2105 19.9699C13.2105 19.8038 13.2708 19.6376 13.3914 19.4714C14.3481 18.2334 15.5983 16.6796 17.1419 14.8101C17.174 14.752 17.2303 14.6772 17.3107 14.5858L17.5157 14.349C17.7167 14.1163 17.9217 14 18.1307 14ZM17.5519 19.4091V15.6452C17.2946 15.9609 16.8123 16.5591 16.1048 17.4399C15.3973 18.3123 14.8627 18.9687 14.5009 19.4091H17.5519Z" fill="#58C4DC"/>
<path fill-rule="evenodd" clip-rule="evenodd" d="M18.6167 22.5467L18.6158 22.5476C18.4854 22.6674 18.2905 22.7 18.0946 22.7H18.0222C17.8314 22.7 17.6423 22.6663 17.5131 22.5476L17.5044 22.5396L17.4967 22.5307C17.386 22.4019 17.3519 22.2227 17.3519 22.0388V20.5438H13.6447C13.4758 20.5438 13.3119 20.5081 13.1885 20.4019C13.0595 20.2908 13.0105 20.1338 13.0105 19.9699C13.0105 19.7525 13.0901 19.5461 13.2295 19.3539L13.2331 19.349C14.1894 18.1116 15.4375 16.5604 16.9768 14.6959C17.0196 14.6232 17.083 14.5419 17.16 14.4543C17.1602 14.4541 17.1598 14.4545 17.16 14.4543L17.3644 14.2182C17.5851 13.9627 17.8406 13.8 18.1307 13.8H18.1549C18.342 13.8 18.5167 13.8548 18.6402 13.9962C18.7591 14.1324 18.8011 14.316 18.8011 14.511V19.2091H19.2281C19.4189 19.2091 19.5988 19.2559 19.73 19.3848C19.862 19.5143 19.9105 19.693 19.9105 19.8827C19.9105 20.0696 19.8612 20.2459 19.7281 20.3731C19.5968 20.4987 19.4176 20.5438 19.2281 20.5438H18.8011V22.0388C18.8011 22.2322 18.7547 22.4183 18.6167 22.5467ZM18.6011 19.4091V14.511C18.6011 14.1703 18.4523 14 18.1549 14H18.1307C17.9217 14 17.7167 14.1163 17.5157 14.349L17.3107 14.5858C17.2303 14.6772 17.174 14.7519 17.1419 14.8101C15.5983 16.6796 14.3481 18.2334 13.3914 19.4714C13.2708 19.6376 13.2105 19.8038 13.2105 19.9699C13.2105 20.2192 13.3552 20.3438 13.6447 20.3438H17.5519V22.0388C17.5519 22.205 17.5841 22.3255 17.6484 22.4003C17.7207 22.4668 17.8453 22.5 18.0222 22.5H18.0946C18.2795 22.5 18.4081 22.4668 18.4805 22.4003C18.5609 22.3255 18.6011 22.205 18.6011 22.0388V20.3438H19.2281C19.5497 20.3438 19.7105 20.1901 19.7105 19.8827C19.7105 19.5669 19.5497 19.4091 19.2281 19.4091H18.6011ZM16.2601 17.5658C15.7103 18.2439 15.2646 18.7917 14.9233 19.2091H17.3519V16.2095C17.0828 16.5427 16.7185 16.9952 16.2601 17.5658ZM17.3519 15.8915C17.074 16.2347 16.6583 16.7508 16.1048 17.4399C15.4974 18.1888 15.0175 18.7785 14.6649 19.2091C14.6068 19.2801 14.5521 19.3467 14.5009 19.4091H17.5519V15.6451C17.4959 15.7139 17.4292 15.796 17.3519 15.8915Z" fill="#58C4DC"/>
</svg>
