<svg width="27" height="27" viewBox="0 0 27 27" fill="none" xmlns="http://www.w3.org/2000/svg">
<path d="M8.68911 21.4752H8.18218C6.78233 21.4752 5.64752 20.3404 5.64752 18.9406V13.8713C5.64752 13.0905 4 12.7307 4 12.7307C4 12.7307 5.64752 12.43 5.64752 11.5901V7.53465C5.64752 6.1348 6.78233 5 8.18218 5H8.68911M18.5109 5H19.0178C20.4177 5 21.5525 6.1348 21.5525 7.53465V12.604C21.5525 13.3848 23.2 13.7446 23.2 13.7446C23.2 13.7446 21.5525 14.0452 21.5525 14.8851L21.5525 18.9406C21.5525 20.3404 20.4177 21.4752 19.0178 21.4752H18.5109" stroke="#DEE14F" stroke-width="2" stroke-linecap="round" stroke-linejoin="round"/>
</svg>
