<svg width="24" height="24" viewBox="0 0 24 24" fill="none" xmlns="http://www.w3.org/2000/svg">
<path d="M3.1748 7.43994L12.0048 12.5499L20.7748 7.46991" stroke="white" stroke-width="1.5" stroke-linecap="round" stroke-linejoin="round"/>
<path d="M12.0049 21.6099V12.5399" stroke="white" stroke-width="1.5" stroke-linecap="round" stroke-linejoin="round"/>
<path d="M21.605 14.97C21.615 14.92 21.615 14.88 21.615 14.83V9.17C21.615 7.79 20.625 6.11002 19.415 5.44002L14.075 2.48C12.935 1.84 11.075 1.84 9.935 2.48L4.595 5.44002C3.385 6.11002 2.39502 7.79 2.39502 9.17V14.83C2.39502 16.21 3.385 17.89 4.595 18.56L9.935 21.52C11.075 22.16 12.935 22.16 14.075 21.52L15.905 20.51" stroke="white" stroke-width="1.5" stroke-linecap="round" stroke-linejoin="round"/>
<path d="M18.8061 21.7014L18.7886 14.2808" stroke="white" stroke-width="1.5" stroke-miterlimit="10" stroke-linecap="round" stroke-linejoin="round"/>
<path d="M22.4208 18.0174L15.0001 17.9999" stroke="white" stroke-width="1.5" stroke-miterlimit="10" stroke-linecap="round" stroke-linejoin="round"/>
</svg>
