<svg width="24" height="24" viewBox="0 0 24 24" fill="none" xmlns="http://www.w3.org/2000/svg">
<path d="M15.6 2.75H11.6C11.19 2.75 10.85 2.41 10.85 2C10.85 1.59 11.19 1.25 11.6 1.25H15.6C16.01 1.25 16.35 1.59 16.35 2C16.35 2.41 16.01 2.75 15.6 2.75Z" fill="#8E99B1"/>
<path d="M7 5.75C6.59 5.75 6.25 5.41 6.25 5C6.25 2.93 7.93 1.25 10 1.25H12.62C13.03 1.25 13.37 1.59 13.37 2C13.37 2.41 13.03 2.75 12.62 2.75H10C8.76 2.75 7.75 3.76 7.75 5C7.75 5.41 7.41 5.75 7 5.75Z" fill="#8E99B1"/>
<path d="M19.19 17.75C18.78 17.75 18.44 17.41 18.44 17C18.44 16.59 18.78 16.25 19.19 16.25C20.33 16.25 21.25 15.32 21.25 14.19V8C21.25 7.59 21.59 7.25 22 7.25C22.41 7.25 22.75 7.59 22.75 8V14.19C22.75 16.15 21.15 17.75 19.19 17.75Z" fill="#8E99B1"/>
<path d="M22 8.75H19C16.34 8.75 15.25 7.66 15.25 5V2C15.25 1.7 15.43 1.42 15.71 1.31C15.99 1.19 16.31 1.26 16.53 1.47L22.53 7.47C22.74 7.68 22.81 8.01 22.69 8.29C22.58 8.57 22.3 8.75 22 8.75ZM16.75 3.81V5C16.75 6.83 17.17 7.25 19 7.25H20.19L16.75 3.81Z" fill="#8E99B1"/>
<path d="M5 13L2 16L5 19" stroke="#8E99B1" stroke-width="1.5" stroke-miterlimit="10" stroke-linecap="round" stroke-linejoin="round"/>
<path d="M13 13L16 16L13 19" stroke="#8E99B1" stroke-width="1.5" stroke-miterlimit="10" stroke-linecap="round" stroke-linejoin="round"/>
<path d="M10 13L8 20" stroke="#8E99B1" stroke-width="1.5" stroke-miterlimit="10" stroke-linecap="round" stroke-linejoin="round"/>
</svg>
